<svg version="1.1" xmlns="http://www.w3.org/2000/svg" width="585" height="512" viewBox="0 0 585 512" fill="white"><title>automobile</title><path d="M137.143 310.857c0-25.143-20.572-45.714-45.715-45.714s-45.715 20.572-45.715 45.714 20.572 45.714 45.715 45.714 45.715-20.572 45.715-45.714zM147.429 219.429h290.286l-25.428-102c-0.857-3.143-6.572-7.715-10-7.715h-219.429c-3.429 0-9.143 4.572-10 7.715zM539.428 310.857c0-25.143-20.572-45.714-45.714-45.714s-45.714 20.572-45.714 45.714 20.572 45.714 45.714 45.714 45.714-20.572 45.714-45.714zM585.143 283.428v109.714c0 5.143-4 9.143-9.143 9.143h-27.428v36.572c0 30.286-24.572 54.857-54.857 54.857s-54.857-24.572-54.857-54.857v-36.572h-292.572v36.572c0 30.286-24.572 54.857-54.857 54.857s-54.857-24.572-54.857-54.857v-36.572h-27.428c-5.143 0-9.143-4-9.143-9.143v-109.714c0-35.428 28.572-64 64-64h8l30-119.715c8.857-36 43.715-63.143 80.857-63.143h219.428c37.143 0 72 27.143 80.857 63.143l30 119.715h8c35.428 0 64 28.572 64 64z"></path></svg>