<svg version="1.1" xmlns="http://www.w3.org/2000/svg" width="512" height="512" viewBox="0 0 512 512" fill="white"><title>comments</title><path d="M402.286 219.429c0 80.857-90 146.286-201.143 146.286-17.429 0-34.285-1.714-50.285-4.572-23.715 16.857-50.572 29.143-79.428 36.572-7.715 2-16 3.428-24.572 4.572h-0.857c-4.285 0-8.285-3.428-9.143-8.286v0c-1.143-5.428 2.572-8.857 5.715-12.572 11.143-12.572 23.715-23.714 33.428-47.428-46.285-26.857-76-68.286-76-114.572 0-80.857 90-146.286 201.143-146.286s201.143 65.428 201.143 146.286zM512 292.572c0 46.572-29.714 87.714-76 114.572 9.714 23.714 22.286 34.857 33.428 47.428 3.143 3.714 6.857 7.143 5.714 12.572v0c-1.143 5.143-5.428 8.857-10 8.286-8.572-1.143-16.857-2.572-24.572-4.572-28.857-7.428-55.714-19.714-79.428-36.572-16 2.857-32.857 4.572-50.286 4.572-51.714 0-99.143-14.286-134.857-37.714 8.286 0.572 16.857 1.143 25.143 1.143 61.428 0 119.428-17.714 163.714-49.714 47.714-34.857 74-82 74-133.143 0-14.857-2.286-29.429-6.572-43.429 48.286 26.572 79.715 68.857 79.715 116.572z"></path></svg>